<mxfile host="app.diagrams.net" modified="2024-07-04T08:41:04.965Z" agent="Mozilla/5.0 (Windows NT 10.0; Win64; x64) AppleWebKit/537.36 (KHTML, like Gecko) Chrome/120.0.0.0 Safari/537.36" etag="IIyNmdFQCZB8B3fThhED" version="24.5.4" type="github">
  <diagram name="Page-1" id="CH2bEQH9BFDrbEWFaoGc">
    <mxGraphModel dx="607" dy="349" grid="1" gridSize="10" guides="1" tooltips="1" connect="1" arrows="1" fold="1" page="1" pageScale="1" pageWidth="1200" pageHeight="400" math="0" shadow="0">
      <root>
        <mxCell id="0" />
        <mxCell id="1" parent="0" />
        <mxCell id="cmpwYM_dk2x506p5Pc3M-3" value="" style="edgeStyle=orthogonalEdgeStyle;rounded=0;orthogonalLoop=1;jettySize=auto;html=1;" edge="1" parent="1" source="cmpwYM_dk2x506p5Pc3M-1" target="cmpwYM_dk2x506p5Pc3M-2">
          <mxGeometry relative="1" as="geometry" />
        </mxCell>
        <mxCell id="cmpwYM_dk2x506p5Pc3M-1" value="KAE create DPL" style="rounded=1;whiteSpace=wrap;html=1;" vertex="1" parent="1">
          <mxGeometry x="80" y="50" width="120" height="60" as="geometry" />
        </mxCell>
        <mxCell id="cmpwYM_dk2x506p5Pc3M-5" value="" style="edgeStyle=orthogonalEdgeStyle;rounded=0;orthogonalLoop=1;jettySize=auto;html=1;" edge="1" parent="1" source="cmpwYM_dk2x506p5Pc3M-2" target="cmpwYM_dk2x506p5Pc3M-4">
          <mxGeometry relative="1" as="geometry" />
        </mxCell>
        <mxCell id="cmpwYM_dk2x506p5Pc3M-2" value="RM review" style="rounded=1;whiteSpace=wrap;html=1;" vertex="1" parent="1">
          <mxGeometry x="80" y="150" width="120" height="60" as="geometry" />
        </mxCell>
        <mxCell id="cmpwYM_dk2x506p5Pc3M-8" style="edgeStyle=orthogonalEdgeStyle;rounded=0;orthogonalLoop=1;jettySize=auto;html=1;entryX=1;entryY=0.5;entryDx=0;entryDy=0;" edge="1" parent="1" source="cmpwYM_dk2x506p5Pc3M-4" target="cmpwYM_dk2x506p5Pc3M-7">
          <mxGeometry relative="1" as="geometry">
            <Array as="points">
              <mxPoint x="270" y="280" />
            </Array>
          </mxGeometry>
        </mxCell>
        <mxCell id="cmpwYM_dk2x506p5Pc3M-41" value="R" style="edgeLabel;html=1;align=center;verticalAlign=middle;resizable=0;points=[];" vertex="1" connectable="0" parent="cmpwYM_dk2x506p5Pc3M-8">
          <mxGeometry x="-0.6181" y="-1" relative="1" as="geometry">
            <mxPoint as="offset" />
          </mxGeometry>
        </mxCell>
        <mxCell id="cmpwYM_dk2x506p5Pc3M-11" value="" style="edgeStyle=orthogonalEdgeStyle;rounded=0;orthogonalLoop=1;jettySize=auto;html=1;" edge="1" parent="1" source="cmpwYM_dk2x506p5Pc3M-4" target="cmpwYM_dk2x506p5Pc3M-10">
          <mxGeometry relative="1" as="geometry" />
        </mxCell>
        <mxCell id="cmpwYM_dk2x506p5Pc3M-40" value="A" style="edgeLabel;html=1;align=center;verticalAlign=middle;resizable=0;points=[];" vertex="1" connectable="0" parent="cmpwYM_dk2x506p5Pc3M-11">
          <mxGeometry x="-0.648" y="2" relative="1" as="geometry">
            <mxPoint as="offset" />
          </mxGeometry>
        </mxCell>
        <mxCell id="cmpwYM_dk2x506p5Pc3M-4" value="Approval / Rejection" style="rhombus;whiteSpace=wrap;html=1;" vertex="1" parent="1">
          <mxGeometry x="230" y="140" width="80" height="80" as="geometry" />
        </mxCell>
        <mxCell id="cmpwYM_dk2x506p5Pc3M-9" value="" style="edgeStyle=orthogonalEdgeStyle;rounded=0;orthogonalLoop=1;jettySize=auto;html=1;" edge="1" parent="1" source="cmpwYM_dk2x506p5Pc3M-7" target="cmpwYM_dk2x506p5Pc3M-2">
          <mxGeometry relative="1" as="geometry" />
        </mxCell>
        <mxCell id="cmpwYM_dk2x506p5Pc3M-7" value="KAE edit DPL" style="rounded=1;whiteSpace=wrap;html=1;" vertex="1" parent="1">
          <mxGeometry x="80" y="250" width="120" height="60" as="geometry" />
        </mxCell>
        <mxCell id="cmpwYM_dk2x506p5Pc3M-13" value="" style="edgeStyle=orthogonalEdgeStyle;rounded=0;orthogonalLoop=1;jettySize=auto;html=1;" edge="1" parent="1" source="cmpwYM_dk2x506p5Pc3M-10" target="cmpwYM_dk2x506p5Pc3M-12">
          <mxGeometry relative="1" as="geometry" />
        </mxCell>
        <mxCell id="cmpwYM_dk2x506p5Pc3M-10" value="NSM review" style="rounded=1;whiteSpace=wrap;html=1;" vertex="1" parent="1">
          <mxGeometry x="340" y="150" width="120" height="60" as="geometry" />
        </mxCell>
        <mxCell id="cmpwYM_dk2x506p5Pc3M-14" style="edgeStyle=orthogonalEdgeStyle;rounded=0;orthogonalLoop=1;jettySize=auto;html=1;entryX=1;entryY=0.5;entryDx=0;entryDy=0;" edge="1" parent="1" source="cmpwYM_dk2x506p5Pc3M-12" target="cmpwYM_dk2x506p5Pc3M-7">
          <mxGeometry relative="1" as="geometry">
            <Array as="points">
              <mxPoint x="530" y="280" />
            </Array>
          </mxGeometry>
        </mxCell>
        <mxCell id="cmpwYM_dk2x506p5Pc3M-43" value="R" style="edgeLabel;html=1;align=center;verticalAlign=middle;resizable=0;points=[];" vertex="1" connectable="0" parent="cmpwYM_dk2x506p5Pc3M-14">
          <mxGeometry x="-0.8621" y="2" relative="1" as="geometry">
            <mxPoint as="offset" />
          </mxGeometry>
        </mxCell>
        <mxCell id="cmpwYM_dk2x506p5Pc3M-16" value="" style="edgeStyle=orthogonalEdgeStyle;rounded=0;orthogonalLoop=1;jettySize=auto;html=1;" edge="1" parent="1" source="cmpwYM_dk2x506p5Pc3M-12" target="cmpwYM_dk2x506p5Pc3M-15">
          <mxGeometry relative="1" as="geometry" />
        </mxCell>
        <mxCell id="cmpwYM_dk2x506p5Pc3M-31" style="edgeStyle=orthogonalEdgeStyle;rounded=0;orthogonalLoop=1;jettySize=auto;html=1;exitX=1;exitY=0.5;exitDx=0;exitDy=0;entryX=0;entryY=0.5;entryDx=0;entryDy=0;" edge="1" parent="1" source="cmpwYM_dk2x506p5Pc3M-12" target="cmpwYM_dk2x506p5Pc3M-21">
          <mxGeometry relative="1" as="geometry">
            <Array as="points">
              <mxPoint x="580" y="180" />
              <mxPoint x="580" y="80" />
            </Array>
          </mxGeometry>
        </mxCell>
        <mxCell id="cmpwYM_dk2x506p5Pc3M-44" value="A" style="edgeLabel;html=1;align=center;verticalAlign=middle;resizable=0;points=[];" vertex="1" connectable="0" parent="cmpwYM_dk2x506p5Pc3M-31">
          <mxGeometry x="-0.9008" y="1" relative="1" as="geometry">
            <mxPoint as="offset" />
          </mxGeometry>
        </mxCell>
        <mxCell id="cmpwYM_dk2x506p5Pc3M-12" value="Approval / Rejection" style="rhombus;whiteSpace=wrap;html=1;" vertex="1" parent="1">
          <mxGeometry x="490" y="140" width="80" height="80" as="geometry" />
        </mxCell>
        <mxCell id="cmpwYM_dk2x506p5Pc3M-19" value="" style="edgeStyle=orthogonalEdgeStyle;rounded=0;orthogonalLoop=1;jettySize=auto;html=1;" edge="1" parent="1" source="cmpwYM_dk2x506p5Pc3M-15" target="cmpwYM_dk2x506p5Pc3M-18">
          <mxGeometry relative="1" as="geometry" />
        </mxCell>
        <mxCell id="cmpwYM_dk2x506p5Pc3M-15" value="GM review" style="rounded=1;whiteSpace=wrap;html=1;" vertex="1" parent="1">
          <mxGeometry x="600" y="150" width="120" height="60" as="geometry" />
        </mxCell>
        <mxCell id="cmpwYM_dk2x506p5Pc3M-20" style="edgeStyle=orthogonalEdgeStyle;rounded=0;orthogonalLoop=1;jettySize=auto;html=1;entryX=1;entryY=0.5;entryDx=0;entryDy=0;" edge="1" parent="1" source="cmpwYM_dk2x506p5Pc3M-18" target="cmpwYM_dk2x506p5Pc3M-7">
          <mxGeometry relative="1" as="geometry">
            <Array as="points">
              <mxPoint x="790" y="280" />
            </Array>
          </mxGeometry>
        </mxCell>
        <mxCell id="cmpwYM_dk2x506p5Pc3M-45" value="R" style="edgeLabel;html=1;align=center;verticalAlign=middle;resizable=0;points=[];" vertex="1" connectable="0" parent="cmpwYM_dk2x506p5Pc3M-20">
          <mxGeometry x="-0.9279" y="2" relative="1" as="geometry">
            <mxPoint as="offset" />
          </mxGeometry>
        </mxCell>
        <mxCell id="cmpwYM_dk2x506p5Pc3M-34" style="edgeStyle=orthogonalEdgeStyle;rounded=0;orthogonalLoop=1;jettySize=auto;html=1;entryX=0;entryY=0.5;entryDx=0;entryDy=0;" edge="1" parent="1" source="cmpwYM_dk2x506p5Pc3M-18" target="cmpwYM_dk2x506p5Pc3M-27">
          <mxGeometry relative="1" as="geometry" />
        </mxCell>
        <mxCell id="cmpwYM_dk2x506p5Pc3M-46" value="A" style="edgeLabel;html=1;align=center;verticalAlign=middle;resizable=0;points=[];" vertex="1" connectable="0" parent="cmpwYM_dk2x506p5Pc3M-34">
          <mxGeometry x="0.224" relative="1" as="geometry">
            <mxPoint as="offset" />
          </mxGeometry>
        </mxCell>
        <mxCell id="cmpwYM_dk2x506p5Pc3M-18" value="Approval / Rejection" style="rhombus;whiteSpace=wrap;html=1;" vertex="1" parent="1">
          <mxGeometry x="750" y="140" width="80" height="80" as="geometry" />
        </mxCell>
        <mxCell id="cmpwYM_dk2x506p5Pc3M-33" style="edgeStyle=orthogonalEdgeStyle;rounded=0;orthogonalLoop=1;jettySize=auto;html=1;entryX=0.5;entryY=0;entryDx=0;entryDy=0;" edge="1" parent="1" source="cmpwYM_dk2x506p5Pc3M-21" target="cmpwYM_dk2x506p5Pc3M-18">
          <mxGeometry relative="1" as="geometry" />
        </mxCell>
        <mxCell id="cmpwYM_dk2x506p5Pc3M-21" value="SMD review" style="rounded=1;whiteSpace=wrap;html=1;" vertex="1" parent="1">
          <mxGeometry x="600" y="50" width="120" height="60" as="geometry" />
        </mxCell>
        <mxCell id="cmpwYM_dk2x506p5Pc3M-36" value="" style="edgeStyle=orthogonalEdgeStyle;rounded=0;orthogonalLoop=1;jettySize=auto;html=1;" edge="1" parent="1" source="cmpwYM_dk2x506p5Pc3M-27" target="cmpwYM_dk2x506p5Pc3M-35">
          <mxGeometry relative="1" as="geometry" />
        </mxCell>
        <mxCell id="cmpwYM_dk2x506p5Pc3M-27" value="DMD review" style="rounded=1;whiteSpace=wrap;html=1;" vertex="1" parent="1">
          <mxGeometry x="860" y="150" width="120" height="60" as="geometry" />
        </mxCell>
        <mxCell id="cmpwYM_dk2x506p5Pc3M-37" style="edgeStyle=orthogonalEdgeStyle;rounded=0;orthogonalLoop=1;jettySize=auto;html=1;entryX=1;entryY=0.5;entryDx=0;entryDy=0;" edge="1" parent="1" source="cmpwYM_dk2x506p5Pc3M-35" target="cmpwYM_dk2x506p5Pc3M-7">
          <mxGeometry relative="1" as="geometry">
            <Array as="points">
              <mxPoint x="1050" y="280" />
            </Array>
          </mxGeometry>
        </mxCell>
        <mxCell id="cmpwYM_dk2x506p5Pc3M-47" value="R" style="edgeLabel;html=1;align=center;verticalAlign=middle;resizable=0;points=[];" vertex="1" connectable="0" parent="cmpwYM_dk2x506p5Pc3M-37">
          <mxGeometry x="-0.9458" y="4" relative="1" as="geometry">
            <mxPoint as="offset" />
          </mxGeometry>
        </mxCell>
        <mxCell id="cmpwYM_dk2x506p5Pc3M-39" style="edgeStyle=orthogonalEdgeStyle;rounded=0;orthogonalLoop=1;jettySize=auto;html=1;entryX=0.5;entryY=1;entryDx=0;entryDy=0;" edge="1" parent="1" source="cmpwYM_dk2x506p5Pc3M-35" target="cmpwYM_dk2x506p5Pc3M-38">
          <mxGeometry relative="1" as="geometry">
            <Array as="points">
              <mxPoint x="1050" y="130" />
              <mxPoint x="1030" y="130" />
            </Array>
          </mxGeometry>
        </mxCell>
        <mxCell id="cmpwYM_dk2x506p5Pc3M-48" value="A" style="edgeLabel;html=1;align=center;verticalAlign=middle;resizable=0;points=[];" vertex="1" connectable="0" parent="cmpwYM_dk2x506p5Pc3M-39">
          <mxGeometry x="-0.2" relative="1" as="geometry">
            <mxPoint as="offset" />
          </mxGeometry>
        </mxCell>
        <mxCell id="cmpwYM_dk2x506p5Pc3M-35" value="Approval / Rejection" style="rhombus;whiteSpace=wrap;html=1;" vertex="1" parent="1">
          <mxGeometry x="1010" y="140" width="80" height="80" as="geometry" />
        </mxCell>
        <mxCell id="cmpwYM_dk2x506p5Pc3M-38" value="DPL Valid" style="rounded=1;whiteSpace=wrap;html=1;" vertex="1" parent="1">
          <mxGeometry x="970" y="50" width="120" height="60" as="geometry" />
        </mxCell>
      </root>
    </mxGraphModel>
  </diagram>
</mxfile>
